<?xml version="1.0" standalone="no"?><svg xmlns="http://www.w3.org/2000/svg" viewBox="0 0 1440 320"><path fill=" #3b5d50" fill-opacity="1" d="M0,160L34.3,144C68.6,128,137,96,206,112C274.3,128,343,192,411,202.7C480,213,549,171,617,181.3C685.7,192,754,256,823,250.7C891.4,245,960,171,1029,117.3C1097.1,64,1166,32,1234,16C1302.9,0,1371,0,1406,0L1440,0L1440,320L1405.7,320C1371.4,320,1303,320,1234,320C1165.7,320,1097,320,1029,320C960,320,891,320,823,320C754.3,320,686,320,617,320C548.6,320,480,320,411,320C342.9,320,274,320,206,320C137.1,320,69,320,34,320L0,320Z"></path></svg>